<svg width="14" height="16" viewBox="0 0 14 16" fill="none" xmlns="http://www.w3.org/2000/svg">
<path d="M12.1562 14V4.65625H4.84375V14H12.1562ZM12.1562 3.34375C12.5104 3.34375 12.8229 3.47917 13.0938 3.75C13.3646 4 13.5 4.30208 13.5 4.65625V14C13.5 14.3542 13.3646 14.6667 13.0938 14.9375C12.8229 15.2083 12.5104 15.3438 12.1562 15.3438H4.84375C4.48958 15.3438 4.17708 15.2083 3.90625 14.9375C3.63542 14.6667 3.5 14.3542 3.5 14V4.65625C3.5 4.30208 3.63542 4 3.90625 3.75C4.17708 3.47917 4.48958 3.34375 4.84375 3.34375H12.1562ZM10.1562 0.65625V2H2.15625V11.3438H0.84375V2C0.84375 1.64583 0.96875 1.33333 1.21875 1.0625C1.48958 0.791667 1.80208 0.65625 2.15625 0.65625H10.1562Z" fill="white"/>
</svg>
