<svg width="45" height="46" viewBox="0 0 45 46" fill="none" xmlns="http://www.w3.org/2000/svg">
<g clip-path="url(#clip0_1617_42789)">
<path d="M22.5 0.25C26.3145 0.25 29.9074 1.20098 33.0557 2.87617C31.5896 3.82539 30.6431 4.72539 29.8916 6.02705C27.6319 5.02686 25.1306 4.47051 22.5 4.47051C17.4516 4.47051 12.8813 6.51748 9.57393 9.82393C6.26748 13.1313 4.22051 17.7016 4.22051 22.75C4.22051 27.7984 6.26748 32.3688 9.57393 35.6761C12.8813 38.9825 17.4516 41.0295 22.5 41.0295C27.5484 41.0295 32.1188 38.9825 35.4261 35.6761C38.7325 32.3688 40.7795 27.7984 40.7795 22.75C40.7795 21.2796 40.6055 19.8505 40.2776 18.4812C41.5934 17.7455 42.5892 16.3735 43.7159 15.2397C44.5474 17.5891 45 20.1168 45 22.75C45 28.9621 42.4811 34.588 38.4091 38.6591C34.338 42.7311 28.7121 45.25 22.5 45.25C16.2879 45.25 10.662 42.7311 6.59004 38.6591C2.51895 34.588 0 28.9621 0 22.75C0 16.5379 2.51895 10.912 6.59004 6.84004C10.662 2.76895 16.2879 0.25 22.5 0.25Z" fill="#EB0100"/>
<path d="M20.2774 29.9789H12.0939C11.8602 29.9789 11.6905 29.9235 11.5851 29.8137C11.4805 29.7029 11.4277 29.5254 11.4277 29.2793V26.9265C11.4277 26.6804 11.4805 26.502 11.5851 26.3921C11.6905 26.2813 11.8602 26.2269 12.0939 26.2269H14.1682V19.7335H12.4648C12.2302 19.7335 12.0605 19.679 11.9551 19.5691C11.8505 19.4584 11.7978 19.28 11.7978 19.0339V16.6819C11.7978 16.435 11.8505 16.2574 11.9551 16.1467C12.0605 16.0368 12.2302 15.9823 12.4648 15.9823H17.8332C18.0679 15.9823 18.2375 16.0368 18.343 16.1467C18.4476 16.2574 18.4994 16.435 18.4994 16.6819V26.2269H20.2774C20.5112 26.2269 20.6809 26.2813 20.7854 26.3921C20.8909 26.502 20.9437 26.6804 20.9437 26.9265V29.2793C20.9437 29.5254 20.8909 29.7029 20.7854 29.8137C20.6809 29.9235 20.5112 29.9789 20.2774 29.9789ZM36.2428 4.80176H38.339C38.7661 4.80176 39.115 5.15156 39.115 5.57871V8.42373H41.9609C42.3881 8.42373 42.737 8.77353 42.737 9.20068V11.2969C42.737 11.724 42.3881 12.0738 41.9609 12.0738H39.115V14.9188C39.115 15.3469 38.7661 15.6958 38.339 15.6958H36.2428C35.8156 15.6958 35.4658 15.3469 35.4658 14.9188V12.0738H32.6199C32.1928 12.0738 31.843 11.724 31.843 11.2969V9.20068C31.843 8.77353 32.1928 8.42373 32.6199 8.42373H35.4658V5.57871C35.4658 5.15156 35.8156 4.80176 36.2428 4.80176ZM33.4988 25.0017V26.8878C33.4988 27.3923 33.4092 27.8537 33.2308 28.2677C33.0523 28.6825 32.7456 29.0394 32.3141 29.3364C31.8825 29.6353 31.2989 29.8655 30.565 30.0272C29.8312 30.189 28.9083 30.2698 27.7974 30.2698C26.6864 30.2698 25.7601 30.189 25.0209 30.0272C24.28 29.8655 23.6938 29.6353 23.2622 29.3364C22.8298 29.0394 22.5239 28.6825 22.3455 28.2677C22.1671 27.8537 22.0774 27.3932 22.0774 26.8878V25.0017C22.0774 24.0946 22.2655 23.3941 22.6417 22.902C23.0179 22.4106 23.4846 22.1057 24.0392 21.9888C23.6322 21.8068 23.3483 21.5353 23.1884 21.1723C23.0275 20.8093 22.9467 20.2547 22.9467 19.7625V18.6349C22.9467 18.155 23.0275 17.727 23.1884 17.3525C23.3475 16.9764 23.6146 16.6547 23.9829 16.3893C24.3538 16.1247 24.8548 15.919 25.4832 15.7775C26.1125 15.6352 26.8903 15.5631 27.8158 15.5631C28.7413 15.5631 29.5165 15.6352 30.1396 15.7775C30.7619 15.919 31.2567 16.1247 31.6206 16.3893C31.9836 16.6547 32.2437 16.9764 32.3976 17.3525C32.5514 17.727 32.6287 18.1567 32.6287 18.6349V19.7625C32.6287 20.2529 32.5496 20.8093 32.3888 21.1723C32.2279 21.5353 31.944 21.8068 31.5371 21.9888C32.0926 22.1057 32.5584 22.4106 32.9346 22.902C33.3116 23.3941 33.4988 24.0955 33.4988 25.0017ZM26.5098 20.6476C26.5098 20.8488 26.5739 21.0264 26.704 21.1626C26.8332 21.2988 27.2788 21.3665 27.7974 21.3665C28.3282 21.3665 28.7747 21.2971 28.8907 21.1626C29.0059 21.0281 29.0665 20.855 29.0665 20.6476V19.5384C29.0665 19.3433 29.0067 19.1789 28.8907 19.0427C28.7729 18.9064 28.3282 18.8379 27.7974 18.8379C27.2788 18.8379 26.8332 18.9064 26.704 19.0427C26.5739 19.1789 26.5098 19.3468 26.5098 19.5384V20.6476ZM26.0466 26.1486C26.0466 26.3517 26.1529 26.5292 26.3612 26.6637C26.5704 26.799 27.1312 26.8685 27.7974 26.8685C28.4636 26.8685 29.0208 26.799 29.2238 26.6637C29.426 26.5292 29.5288 26.3561 29.5288 26.1486V24.9911C29.5288 24.7969 29.4269 24.6316 29.2238 24.4954C29.0199 24.3601 28.4636 24.2915 27.7974 24.2915C27.1312 24.2915 26.5704 24.3601 26.3612 24.4954C26.1512 24.6316 26.0466 24.7995 26.0466 24.9911V26.1486Z" fill="white"/>
</g>
<defs>
<clipPath id="clip0_1617_42789">
<rect width="45" height="45" fill="white" transform="translate(0 0.25)"/>
</clipPath>
</defs>
</svg>
