<svg width="143" height="20" viewBox="0 0 143 20" fill="none" xmlns="http://www.w3.org/2000/svg">
<path d="M9.5 0.25L11.6329 6.81434H18.535L12.9511 10.8713L15.084 17.4357L9.5 13.3787L3.91604 17.4357L6.04892 10.8713L0.464963 6.81434H7.36712L9.5 0.25Z" fill="#33B063"/>
<path d="M44.5 0.25L46.6329 6.81434H53.535L47.9511 10.8713L50.084 17.4357L44.5 13.3787L38.916 17.4357L41.0489 10.8713L35.465 6.81434H42.3671L44.5 0.25Z" fill="#33B063"/>
<path d="M77 5.25L78.5716 10.0869H83.6574L79.5429 13.0762L81.1145 17.9131L77 14.9238L72.8855 17.9131L74.4571 13.0762L70.3426 10.0869H75.4284L77 5.25Z" fill="#D9D9D9"/>
<path d="M106.5 5.25L107.959 10.0869H112.682L108.861 13.0762L110.321 17.9131L106.5 14.9238L102.679 17.9131L104.139 13.0762L100.318 10.0869H105.041L106.5 5.25Z" fill="#D9D9D9"/>
<path d="M136 5.25L137.572 10.0869H142.657L138.543 13.0762L140.114 17.9131L136 14.9238L131.886 17.9131L133.457 13.0762L129.343 10.0869H134.428L136 5.25Z" fill="#D9D9D9"/>
</svg>
