<svg width="24" height="19" viewBox="0 0 24 19" fill="none" xmlns="http://www.w3.org/2000/svg">
<path d="M11.0156 13.2944V10.2944H0.984375V8.32562H11.0156V5.32562L15 9.31L11.0156 13.2944ZM21 0.309998C21.5625 0.309998 22.0312 0.513123 22.4062 0.919373C22.8125 1.29437 23.0156 1.76312 23.0156 2.32562V16.3412C23.0156 16.8725 22.8125 17.3412 22.4062 17.7475C22 18.1225 21.5312 18.31 21 18.31H3C2.46875 18.31 2 18.1225 1.59375 17.7475C1.1875 17.3412 0.984375 16.8725 0.984375 16.3412V12.31H3V16.3412H21V2.27875H3V6.31H0.984375V2.32562C0.984375 1.79437 1.1875 1.32562 1.59375 0.919373C2 0.513123 2.46875 0.309998 3 0.309998H21Z" fill="white"/>
</svg>
