<svg width="30" height="36" viewBox="0 0 30 36" fill="none" xmlns="http://www.w3.org/2000/svg">
<path d="M14.9999 35.7388L1.94475 22.6837C0.914553 21.6518 0.335938 20.2533 0.335938 18.7952C0.335938 17.3371 0.914553 15.9385 1.94475 14.9067C3.95041 12.901 7.40441 12.8203 9.49991 14.6958V5.8335C9.49991 2.80116 11.9676 0.333496 14.9999 0.333496C18.0322 0.333496 20.4999 2.80116 20.4999 5.8335V14.6958C22.5954 12.8203 26.0494 12.901 28.0551 14.9067C29.0853 15.9385 29.6639 17.3371 29.6639 18.7952C29.6639 20.2533 29.0853 21.6518 28.0551 22.6837L14.9999 35.7388ZM5.83325 16.9618C5.47031 16.961 5.11532 17.0681 4.81333 17.2694C4.51134 17.4707 4.27597 17.7572 4.13709 18.0925C3.99822 18.4278 3.96209 18.7968 4.03331 19.1527C4.10452 19.5086 4.27986 19.8353 4.53708 20.0913L14.9999 30.5542L25.4627 20.0913C25.6331 19.9212 25.7683 19.7192 25.8606 19.4968C25.9528 19.2744 26.0003 19.0359 26.0003 18.7952C26.0003 18.5544 25.9528 18.316 25.8606 18.0936C25.7683 17.8711 25.6331 17.6691 25.4627 17.499C25.1142 17.1644 24.6497 16.9776 24.1666 16.9776C23.6834 16.9776 23.219 17.1644 22.8704 17.499L16.8332 23.5362V5.8335C16.8121 5.36145 16.6098 4.91574 16.2682 4.58917C15.9267 4.2626 15.4724 4.08034 14.9999 4.08034C14.5274 4.08034 14.0731 4.2626 13.7316 4.58917C13.3901 4.91574 13.1877 5.36145 13.1666 5.8335V23.5362L7.12941 17.499C6.95976 17.328 6.7578 17.1925 6.53528 17.1002C6.31276 17.008 6.07412 16.961 5.83325 16.9618Z" fill="#ECECEC"/>
</svg>
