<svg width="30" height="30" viewBox="0 0 30 30" fill="none" xmlns="http://www.w3.org/2000/svg">
<g clip-path="url(#clip0_1987_33013)">
<rect width="30" height="30" rx="15" fill="white"/>
<path fill-rule="evenodd" clip-rule="evenodd" d="M100 0H0V100H100V0ZM9.30529 12.7258C9.40543 9.84507 11.8318 7.82842 14.2667 7.55016C17.344 7.19868 20.2339 8.70714 20.633 11.6713C21.0822 15.0148 19.2439 18.6395 15.952 18.3788C15.2818 18.3261 14.9042 18.0578 14.4616 17.7433C14.3147 17.6389 14.1607 17.5294 13.9863 17.421C13.6015 19.486 13.1322 21.466 11.7402 22.5C11.4241 20.2015 11.9159 18.3239 12.3936 16.5C12.5645 15.8475 12.7336 15.2018 12.8633 14.5462C12.0235 13.0992 12.9648 10.1863 14.736 10.9039C15.7795 11.3269 15.3906 12.5789 15.0019 13.8304C14.579 15.1921 14.1563 16.5532 15.5786 16.8455C18.4284 17.4328 19.5915 11.7826 17.8247 9.94612C15.271 7.29387 10.3911 9.88461 10.9906 13.6836C11.0408 14.0025 11.1847 14.2451 11.3232 14.4784C11.5871 14.9233 11.8309 15.3341 11.3654 16.1747C9.73019 15.8042 9.24234 14.4847 9.30529 12.7258Z" fill="#FF0000"/>
</g>
<defs>
<clipPath id="clip0_1987_33013">
<rect width="30" height="30" rx="15" fill="white"/>
</clipPath>
</defs>
</svg>
