<svg width="33" height="34" viewBox="0 0 33 34" fill="none" xmlns="http://www.w3.org/2000/svg">
<path d="M32.5063 21.3016C30.3023 30.1409 21.3485 35.5204 12.5071 33.3161C3.66937 31.1124 -1.7107 22.159 0.494206 13.3204C2.69718 4.48005 11.651 -0.899822 20.4897 1.30387C29.3305 3.50756 34.7102 12.4619 32.506 21.3017L32.5062 21.3016H32.5063Z" fill="#F7931A"/>
<path d="M23.7767 14.9592C24.1052 12.7634 22.4332 11.583 20.147 10.7957L20.8887 7.82126L19.0779 7.3701L18.3559 10.2662C17.8798 10.1475 17.391 10.0356 16.9051 9.92471L17.6323 7.00952L15.8226 6.55836L15.0806 9.53178C14.6866 9.4421 14.2997 9.35346 13.9243 9.26007L13.9264 9.25071L11.4293 8.6272L10.9476 10.561C10.9476 10.561 12.291 10.869 12.2627 10.8879C12.996 11.0709 13.1286 11.5563 13.1066 11.941L12.2617 15.3295C12.3122 15.3423 12.3777 15.3609 12.45 15.3899C12.3896 15.3749 12.3253 15.3585 12.2586 15.3426L11.0744 20.0894C10.9848 20.3122 10.7574 20.6465 10.2447 20.5195C10.2628 20.5458 8.92857 20.1911 8.92857 20.1911L8.02954 22.2637L10.386 22.851C10.8244 22.961 11.254 23.076 11.677 23.1841L10.9277 26.1926L12.7364 26.6438L13.4785 23.6672C13.9726 23.8013 14.4521 23.9251 14.9216 24.0417L14.182 27.0042L15.9929 27.4554L16.7421 24.4525C19.83 25.0368 22.1517 24.8013 23.129 22.0086C23.9165 19.7603 23.0898 18.4634 21.4653 17.6177C22.6485 17.3449 23.5397 16.5668 23.7774 14.9594L23.7768 14.959L23.7767 14.9592ZM19.6394 20.76C19.0798 23.0084 15.2938 21.793 14.0663 21.4882L15.0607 17.5025C16.2881 17.8089 20.2243 18.4152 19.6395 20.76H19.6394ZM20.1995 14.9266C19.689 16.9717 16.5378 15.9327 15.5156 15.6779L16.4172 12.0631C17.4394 12.3179 20.7312 12.7934 20.1996 14.9266H20.1995Z" fill="white"/>
</svg>
