<svg width="33" height="34" viewBox="0 0 33 34" fill="none" xmlns="http://www.w3.org/2000/svg">
<g clip-path="url(#clip0_1820_44666)">
<path d="M16.5001 32.0242C24.6265 32.0242 31.2142 25.4364 31.2142 17.31C31.2142 9.18358 24.6265 2.59583 16.5001 2.59583C8.37364 2.59583 1.78589 9.18358 1.78589 17.31C1.78589 25.4364 8.37364 32.0242 16.5001 32.0242Z" fill="white"/>
<path d="M16.5 0.809998C13.2366 0.809998 10.0465 1.77771 7.3331 3.59075C4.61969 5.40379 2.50484 7.98074 1.256 10.9957C0.00714914 14.0107 -0.319606 17.3283 0.31705 20.529C0.953707 23.7297 2.52518 26.6697 4.83275 28.9773C7.14031 31.2848 10.0803 32.8563 13.281 33.493C16.4817 34.1296 19.7993 33.8029 22.8143 32.554C25.8293 31.3052 28.4062 29.1903 30.2193 26.4769C32.0323 23.7635 33 20.5734 33 17.31C33.0063 15.1495 32.587 13.0089 31.766 11.0104C30.9451 9.01194 29.7385 7.19474 28.2152 5.66257C26.692 4.1304 24.8818 2.91327 22.8882 2.08066C20.8945 1.24806 18.7564 0.816284 16.5959 0.809998H16.5ZM16.7797 17.8693L15.0618 23.6623H24.2506C24.3115 23.6602 24.3722 23.67 24.4292 23.6914C24.4863 23.7127 24.5385 23.7451 24.5831 23.7866C24.6276 23.8282 24.6635 23.8781 24.6887 23.9336C24.7139 23.989 24.728 24.0489 24.73 24.1098V24.2616L23.931 27.0182C23.8958 27.1486 23.8173 27.2631 23.7084 27.343C23.5995 27.4228 23.4667 27.4633 23.3317 27.4577H9.26877L11.6259 19.4274L8.98911 20.2265L9.58839 18.3887L12.2252 17.5897L15.5412 6.32331C15.5777 6.19368 15.6565 6.07999 15.7651 6.00035C15.8737 5.92071 16.0058 5.8797 16.1404 5.88385H19.6961C19.757 5.88171 19.8177 5.8916 19.8747 5.91293C19.9318 5.93427 19.9841 5.96664 20.0286 6.0082C20.0731 6.04976 20.109 6.09969 20.1342 6.15513C20.1594 6.21057 20.1735 6.27043 20.1756 6.3313V6.48312L17.3789 15.9916L20.0157 15.1926L19.4564 17.1102L16.7797 17.8693Z" fill="#345D9D"/>
</g>
<defs>
<clipPath id="clip0_1820_44666">
<rect width="33" height="33" fill="white" transform="translate(0 0.809998)"/>
</clipPath>
</defs>
</svg>
