<svg width="30" height="36" viewBox="0 0 30 36" fill="none" xmlns="http://www.w3.org/2000/svg">
<g clip-path="url(#clip0_1390_44126)">
<path d="M25.4494 3.53432C23.8165 1.69369 20.8648 0.904572 17.0887 0.904572H6.12931C5.7557 0.904585 5.39435 1.03641 5.11022 1.27633C4.82609 1.51626 4.63783 1.84856 4.57927 2.21348L0.0159922 30.8355C-0.0747109 31.3999 0.367203 31.911 0.945641 31.911H7.71158L9.4108 21.2521L9.35806 21.5859C9.47912 20.8324 10.1307 20.2767 10.9022 20.2767H14.1174C20.4336 20.2767 25.3792 17.7396 26.8239 10.4001C26.8668 10.183 26.904 9.97177 26.9361 9.76537C26.7537 9.66987 26.7537 9.66987 26.9361 9.76537C27.3663 7.05263 26.9331 5.20609 25.4494 3.53432Z" fill="#27346A"/>
<path d="M11.9997 8.78815C12.1847 8.70104 12.387 8.6559 12.5919 8.65603H21.1838C22.2012 8.65603 23.1502 8.72151 24.0174 8.85954C24.2601 8.8978 24.5015 8.94349 24.7413 8.99652C25.0812 9.0707 25.4171 9.16148 25.7479 9.26853C26.1742 9.40934 26.5713 9.57333 26.9362 9.76537C27.3663 7.05159 26.9331 5.20609 25.4494 3.53432C23.8156 1.69369 20.8648 0.904572 17.0887 0.904572H6.12838C5.3567 0.904572 4.70021 1.46017 4.57927 2.21348L0.0159928 30.8344C-0.0747103 31.3998 0.367204 31.9102 0.944704 31.9102H7.71158L11.2369 9.80106C11.2716 9.58375 11.3591 9.37802 11.492 9.20157C11.6249 9.02512 11.7991 8.88325 11.9997 8.78815Z" fill="#27346A"/>
<path d="M26.8239 10.4001C25.3792 17.7385 20.4336 20.2767 14.1173 20.2767H10.9012C10.1297 20.2767 9.47799 20.8324 9.35811 21.5859L7.24417 34.8389C7.16518 35.3329 7.55143 35.7804 8.05674 35.7804H13.7603C14.087 35.7804 14.4029 35.665 14.6513 35.4551C14.8997 35.2452 15.0642 34.9546 15.1153 34.6354L15.1708 34.348L16.2458 27.6104L16.3151 27.238C16.3661 26.9189 16.5306 26.6283 16.779 26.4184C17.0274 26.2085 17.3433 26.0931 17.67 26.093H18.5236C24.0486 26.093 28.3748 23.8731 29.639 17.4531C30.1667 14.7701 29.8937 12.5301 28.4978 10.9568C28.0744 10.4802 27.5485 10.0866 26.936 9.76537C26.9028 9.97282 26.8669 10.183 26.8239 10.4001Z" fill="#2790C3"/>
<path d="M25.424 9.1692C25.1987 9.10415 24.9714 9.04656 24.7422 8.99652C24.5023 8.94435 24.2609 8.89898 24.0183 8.86046C23.1502 8.72151 22.2019 8.65591 21.1836 8.65591H12.5927C12.3877 8.65545 12.1852 8.70098 12.0005 8.78907C11.7997 8.88388 11.6253 9.02567 11.4923 9.20217C11.3594 9.37867 11.272 9.58455 11.2376 9.80199L9.41162 21.2521L9.35889 21.5859C9.479 20.8324 10.1306 20.2767 10.9022 20.2767H14.1183C20.4345 20.2767 25.3801 17.7396 26.8247 10.4001C26.8678 10.183 26.9038 9.9727 26.937 9.76536C26.5712 9.57437 26.1752 9.40934 25.7487 9.26945C25.6411 9.23417 25.5329 9.20075 25.4241 9.1692" fill="#1F264F"/>
</g>
<defs>
<clipPath id="clip0_1390_44126">
<rect width="30" height="35" fill="white" transform="translate(0 0.809998)"/>
</clipPath>
</defs>
</svg>
