<svg width="69" height="24" viewBox="0 0 69 24" fill="none" xmlns="http://www.w3.org/2000/svg">
<path d="M35.6851 8.16283C35.6458 11.3668 38.4513 13.1547 40.5647 14.2178C42.7361 15.3084 43.4654 16.0078 43.4568 16.9833C43.4406 18.4759 41.7248 19.1348 40.1192 19.1604C37.318 19.2052 35.6892 18.3797 34.3943 17.7553L33.3852 22.6295C34.6844 23.2474 37.0899 23.7863 39.5844 23.81C45.44 23.81 49.2709 20.8264 49.2916 16.2004C49.3145 10.3293 41.4245 10.0044 41.4784 7.38019C41.497 6.58448 42.2326 5.73535 43.8444 5.51945C44.6422 5.41039 46.8445 5.32692 49.3415 6.51381L50.3215 1.79796C48.9787 1.29327 47.2529 0.809999 45.1042 0.809999C39.5928 0.809999 35.7164 3.83426 35.6851 8.16283ZM59.7384 1.2162C58.6691 1.2162 57.7681 1.86 57.366 2.84797L49.0016 23.4636H54.8528L56.0172 20.1419H63.1673L63.8428 23.4636H69L64.4996 1.2162H59.7384ZM60.5569 7.22606L62.2455 15.5802H57.6209L60.5569 7.22606ZM28.5908 1.21648L23.9786 23.4633H29.5544L34.1644 1.21592H28.5908M20.3423 1.21592L14.5388 16.3587L12.1912 3.48343C11.9157 2.04614 10.8279 1.2162 9.61984 1.2162H0.132879L0 1.86223C1.94763 2.29848 4.16048 3.0021 5.50113 3.75497C6.32159 4.21487 6.55554 4.6169 6.82507 5.70975L11.2715 23.4636H17.1637L26.1974 1.2162L20.3423 1.21592Z" fill="url(#paint0_linear_1390_44131)"/>
<defs>
<linearGradient id="paint0_linear_1390_44131" x1="3172.21" y1="69.948" x2="3240.92" y2="-2292.06" gradientUnits="userSpaceOnUse">
<stop stop-color="#222357"/>
<stop offset="1" stop-color="#254AA5"/>
</linearGradient>
</defs>
</svg>
