<svg width="35" height="29" viewBox="0 0 35 29" fill="none" xmlns="http://www.w3.org/2000/svg">
<g clip-path="url(#clip0_1820_44680)">
<path d="M5.127 0.309998H0.068409L10.5958 10.3794C14.4082 14.0241 20.5892 14.0241 24.4043 10.3794L34.9358 0.309998H29.8731L21.875 7.95915C20.7097 9.06865 19.1393 9.69062 17.5031 9.69062C15.867 9.69062 14.2965 9.06865 13.1312 7.95915L5.127 0.309998Z" fill="#FBA048"/>
<path d="M29.938 28.31H35L24.4043 18.1785C20.5919 14.5339 14.4108 14.5339 10.5957 18.1785L0 28.31H5.05859L13.125 20.5988C14.2903 19.4893 15.8608 18.8673 17.4969 18.8673C19.1331 18.8673 20.7035 19.4893 21.8688 20.5988L29.938 28.31Z" fill="#FBA048"/>
</g>
<defs>
<clipPath id="clip0_1820_44680">
<rect width="35" height="28" fill="white" transform="matrix(-1 0 0 1 35 0.309998)"/>
</clipPath>
</defs>
</svg>
