<svg width="18" height="17" viewBox="0 0 18 17" fill="none" xmlns="http://www.w3.org/2000/svg">
<path d="M15.6797 10.6797V5.67969H11.4219L13.1797 8.02344L11.8125 9C10.1458 6.73438 9.20833 5.45833 9 5.17188C8.79167 5.45833 7.85417 6.73438 6.1875 9L4.82031 8.02344L6.57812 5.67969H2.32031V10.6797H15.6797ZM15.6797 14.8203V13.1797H2.32031V14.8203H15.6797ZM7.08594 2.59375C6.92969 2.41146 6.73438 2.32031 6.5 2.32031C6.26562 2.32031 6.07031 2.41146 5.91406 2.59375C5.75781 2.75 5.67969 2.94531 5.67969 3.17969C5.67969 3.41406 5.75781 3.60938 5.91406 3.76562C6.07031 3.92188 6.26562 4 6.5 4C6.73438 4 6.92969 3.92188 7.08594 3.76562C7.24219 3.60938 7.32031 3.41406 7.32031 3.17969C7.32031 2.94531 7.24219 2.75 7.08594 2.59375ZM12.0859 2.59375C11.9297 2.41146 11.7344 2.32031 11.5 2.32031C11.2656 2.32031 11.0703 2.41146 10.9141 2.59375C10.7578 2.75 10.6797 2.94531 10.6797 3.17969C10.6797 3.41406 10.7578 3.60938 10.9141 3.76562C11.0703 3.92188 11.2656 4 11.5 4C11.7344 4 11.9297 3.92188 12.0859 3.76562C12.2422 3.60938 12.3203 3.41406 12.3203 3.17969C12.3203 2.94531 12.2422 2.75 12.0859 2.59375ZM15.6797 4C16.1484 4 16.5391 4.16927 16.8516 4.50781C17.1641 4.82031 17.3203 5.21094 17.3203 5.67969V14.8203C17.3203 15.2891 17.1641 15.6927 16.8516 16.0312C16.5391 16.3438 16.1484 16.5 15.6797 16.5H2.32031C1.85156 16.5 1.46094 16.3438 1.14844 16.0312C0.835938 15.6927 0.679688 15.2891 0.679688 14.8203V5.67969C0.679688 5.21094 0.835938 4.82031 1.14844 4.50781C1.46094 4.16927 1.85156 4 2.32031 4H4.15625C4.05208 3.63542 4 3.36198 4 3.17969C4 2.5026 4.2474 1.91667 4.74219 1.42188C5.23698 0.927083 5.82292 0.679688 6.5 0.679688C7.35938 0.679688 8.04948 1.04427 8.57031 1.77344L9 2.35938L9.42969 1.77344C9.61198 1.46094 9.91146 1.20052 10.3281 0.992188C10.7448 0.783854 11.1354 0.679688 11.5 0.679688C12.1771 0.679688 12.763 0.927083 13.2578 1.42188C13.7526 1.91667 14 2.5026 14 3.17969C14 3.36198 13.9479 3.63542 13.8438 4H15.6797Z" fill="white"/>
</svg>
