<svg width="18" height="12" viewBox="0 0 18 12" fill="none" xmlns="http://www.w3.org/2000/svg">
<path d="M12.5547 6.58594C12.737 6.74219 12.9453 6.82031 13.1797 6.82031C13.4141 6.82031 13.6094 6.74219 13.7656 6.58594C13.9219 6.42969 14 6.23438 14 6C14 5.76562 13.9219 5.57031 13.7656 5.41406C13.6094 5.25781 13.4141 5.17969 13.1797 5.17969C12.9453 5.17969 12.737 5.25781 12.5547 5.41406C12.3984 5.57031 12.3203 5.76562 12.3203 6C12.3203 6.23438 12.3984 6.42969 12.5547 6.58594ZM10.9141 4.08594C11.0703 4.24219 11.2656 4.32031 11.5 4.32031C11.7344 4.32031 11.9297 4.24219 12.0859 4.08594C12.2422 3.92969 12.3203 3.73438 12.3203 3.5C12.3203 3.26562 12.2422 3.07031 12.0859 2.91406C11.9297 2.75781 11.7344 2.67969 11.5 2.67969C11.2656 2.67969 11.0703 2.75781 10.9141 2.91406C10.7578 3.07031 10.6797 3.26562 10.6797 3.5C10.6797 3.73438 10.7578 3.92969 10.9141 4.08594ZM8.17969 5.17969V4.32031H6.5V2.67969H5.67969V4.32031H4V5.17969H5.67969V6.82031H6.5V5.17969H8.17969ZM16.9688 9.39844C17.0729 10.0495 16.9036 10.6224 16.4609 11.1172C16.0443 11.5859 15.5104 11.8203 14.8594 11.8203C14.2865 11.8203 13.7917 11.612 13.375 11.1953L11.5 9.32031H6.5L4.625 11.1953C4.20833 11.612 3.70052 11.8203 3.10156 11.8203C2.5026 11.8203 1.99479 11.625 1.57812 11.2344C1.1875 10.8177 0.992188 10.3099 0.992188 9.71094C0.992188 9.6849 0.992188 9.63281 0.992188 9.55469C1.01823 9.47656 1.03125 9.42448 1.03125 9.39844L1.92969 3.03125C2.03385 2.22396 2.39844 1.54688 3.02344 1C3.64844 0.453125 4.3776 0.179688 5.21094 0.179688H12.7891C13.5964 0.179688 14.3125 0.466146 14.9375 1.03906C15.5625 1.58594 15.9401 2.25 16.0703 3.03125L16.9688 9.39844Z" fill="#90A4AE"/>
</svg>
