<svg width="18" height="16" viewBox="0 0 18 16" fill="none" xmlns="http://www.w3.org/2000/svg">
<path d="M3.17969 13.8203H14.8594V8.82031H14.6641C13.8828 8.82031 13.2578 8.5599 12.7891 8.03906C12.2682 8.5599 11.6432 8.82031 10.9141 8.82031C10.2109 8.82031 9.57292 8.5599 9 8.03906C8.47917 8.5599 7.86719 8.82031 7.16406 8.82031C6.38281 8.82031 5.73177 8.5599 5.21094 8.03906C4.74219 8.5599 4.13021 8.82031 3.375 8.82031H3.17969V13.8203ZM2.35938 5.8125C2.28125 6.17708 2.35938 6.5026 2.59375 6.78906C2.77604 7.04948 3.03646 7.17969 3.375 7.17969C3.92188 7.17969 4.2474 6.85417 4.35156 6.20312L4.85938 2.17969H3.21875L2.35938 5.8125ZM6.07031 6.04688C6.07031 6.33333 6.16146 6.59375 6.34375 6.82812C6.55208 7.0625 6.79948 7.17969 7.08594 7.17969C7.39844 7.17969 7.65885 7.07552 7.86719 6.86719C8.07552 6.63281 8.17969 6.3724 8.17969 6.08594V2.17969H6.53906L6.07031 5.92969V6.04688ZM9.82031 2.17969V6.08594C9.82031 6.3724 9.92448 6.63281 10.1328 6.86719C10.3411 7.07552 10.5755 7.17969 10.8359 7.17969C11.1745 7.17969 11.4479 7.0625 11.6562 6.82812C11.8906 6.56771 11.9818 6.26823 11.9297 5.92969L11.4609 2.17969H9.82031ZM14.7422 2.14062L13.1406 2.17969L13.6484 6.20312C13.6745 6.46354 13.7786 6.69792 13.9609 6.90625C14.1432 7.08854 14.3646 7.17969 14.625 7.17969C14.9375 7.17969 15.1979 7.04948 15.4062 6.78906C15.6406 6.5026 15.7188 6.17708 15.6406 5.8125L14.7422 2.14062ZM17.2422 5.42188C17.4505 6.33333 17.2812 7.1276 16.7344 7.80469L16.5 8.03906V13.8203C16.5 14.263 16.3307 14.6536 15.9922 14.9922C15.6536 15.3307 15.263 15.5 14.8203 15.5H3.17969C2.73698 15.5 2.34635 15.3307 2.00781 14.9922C1.66927 14.6536 1.5 14.263 1.5 13.8203V8.03906L1.26562 7.80469C0.71875 7.1276 0.549479 6.33333 0.757812 5.42188L1.61719 1.75C1.69531 1.38542 1.89062 1.08594 2.20312 0.851562C2.51562 0.617188 2.85417 0.5 3.21875 0.5H14.7812C15.1458 0.5 15.4714 0.617188 15.7578 0.851562C16.0703 1.08594 16.2786 1.38542 16.3828 1.75L17.2422 5.42188Z" fill="white"/>
</svg>
