<svg width="18" height="18" viewBox="0 0 18 18" fill="none" xmlns="http://www.w3.org/2000/svg">
<path d="M15.6797 7.32031V2.32031H2.32031V7.32031H15.6797ZM15.6797 11.5V9.82031H2.32031V11.5H15.6797ZM15.6797 0.679688C16.1484 0.679688 16.5391 0.835938 16.8516 1.14844C17.1641 1.46094 17.3203 1.85156 17.3203 2.32031V11.5C17.3203 11.9688 17.1641 12.3724 16.8516 12.7109C16.5391 13.0234 16.1484 13.1797 15.6797 13.1797H12.3203V17.3203L9 15.6797L5.67969 17.3203V13.1797H2.32031C1.85156 13.1797 1.46094 13.0234 1.14844 12.7109C0.835938 12.3724 0.679688 11.9688 0.679688 11.5V2.32031C0.679688 1.85156 0.835938 1.46094 1.14844 1.14844C1.46094 0.835938 1.85156 0.679688 2.32031 0.679688H15.6797Z" fill="white"/>
</svg>
