<svg width="79" height="55" viewBox="0 0 79 55" fill="none" xmlns="http://www.w3.org/2000/svg">
  <rect x="0.0775146" width="78" height="55" rx="4" fill="#44566C" />
  <g clip-path="url(#clip0_790_3495)">
    <path
      d="M38.9548 39.1559C38.9548 37.8948 39.9458 36.8843 41.182 36.8843C42.4163 36.8843 43.4053 37.8948 43.4053 39.1559C43.4064 39.4546 43.3496 39.7506 43.2382 40.0268C43.1269 40.303 42.9632 40.5539 42.7565 40.7652C42.5499 40.9766 42.3044 41.144 42.0342 41.258C41.764 41.3721 41.4744 41.4303 41.182 41.4296C40.8895 41.4309 40.5996 41.373 40.3291 41.2594C40.0586 41.1457 39.8127 40.9785 39.6057 40.7673C39.3987 40.5562 39.2346 40.3053 39.1229 40.0291C39.0112 39.7528 38.9541 39.4548 38.9548 39.1559ZM48.0092 39.1579C48.0092 37.8948 49.0001 36.8823 50.2344 36.8823C51.4688 36.8823 52.4597 37.8948 52.4597 39.1559C52.4597 40.4171 51.4688 41.4296 50.2363 41.4296C49.9438 41.4309 49.654 41.373 49.3834 41.2594C49.1129 41.1457 48.8671 40.9785 48.66 40.7673C48.453 40.5562 48.2889 40.3053 48.1772 40.0291C48.0655 39.7528 48.0084 39.4568 48.0092 39.1579ZM27.0217 39.1579C27.0217 37.8948 28.0126 36.8823 29.2469 36.8823C30.4813 36.8823 31.4703 37.8948 31.4703 39.1559C31.4703 40.4171 30.4813 41.4296 29.2469 41.4296C28.9546 41.4306 28.6649 41.3726 28.3946 41.2588C28.1243 41.145 27.8787 40.9778 27.6719 40.7666C27.4651 40.5555 27.3011 40.3047 27.1896 40.0286C27.078 39.7525 27.0209 39.4566 27.0217 39.1579ZM17.9673 39.1579C17.9673 37.8948 18.9583 36.8823 20.1926 36.8823C21.4269 36.8823 22.4178 37.8948 22.4178 39.1559C22.4189 39.4548 22.362 39.7509 22.2505 40.0272C22.1391 40.3036 21.9752 40.5546 21.7683 40.7659C21.5615 40.9773 21.3158 41.1447 21.0454 41.2586C20.7749 41.3725 20.4851 41.4306 20.1926 41.4296C19.9004 41.4303 19.611 41.3721 19.3409 41.2582C19.0708 41.1443 18.8254 40.977 18.6188 40.7659C18.4122 40.5548 18.2484 40.3041 18.137 40.0281C18.0255 39.7522 17.9666 39.4564 17.9673 39.1579ZM36.2734 35.1394H34.3376V43.0961H36.2734V35.1394ZM22.4025 43.0961H24.3383V35.1394H22.4025V35.7778C21.7277 35.298 20.9246 35.0422 20.1025 35.0454C17.8753 35.0454 16.0775 36.8823 16.0775 39.1579C16.0775 41.4452 17.8753 43.2684 20.1025 43.2684C20.9554 43.2684 21.747 43.0041 22.4025 42.536V43.0961ZM52.4443 43.0961H54.3802V35.1394H52.4443V35.7778C51.7696 35.298 50.9665 35.0422 50.1443 35.0454C47.9172 35.0454 46.1193 36.8823 46.1193 39.1579C46.1176 39.6984 46.2205 40.2339 46.4222 40.7335C46.6238 41.2332 46.9203 41.6871 47.2944 42.0692C47.6685 42.4513 48.113 42.754 48.6021 42.9598C49.0912 43.1656 49.6154 43.2705 50.1443 43.2684C50.9973 43.2684 51.7888 43.0041 52.4443 42.536V43.0961ZM55.097 40.5111C55.1583 42.1169 56.5 43.2528 58.7387 43.2528C60.5691 43.2528 62.0775 42.442 62.0775 40.6521C62.0775 39.4066 61.3913 38.6742 59.8063 38.3609L58.5719 38.1141C57.7784 37.9574 57.2303 37.8008 57.2303 37.319C57.2303 36.7903 57.7631 36.5553 58.4339 36.5553C59.4114 36.5553 59.8063 37.0547 59.8369 37.6461H61.7881C61.6808 36.0892 60.4618 35.0454 58.4953 35.0454C56.4693 35.0454 55.2638 36.1812 55.2638 37.6617C55.2638 39.4673 56.6974 39.763 57.9318 39.998L58.9534 40.1841C59.6855 40.3251 60.0056 40.5424 60.0056 40.9792C60.0056 41.3689 59.6395 41.7566 58.7693 41.7566C57.5043 41.7566 57.0942 41.0869 57.0788 40.5111H55.097ZM31.4568 32.4291V35.7778C30.7821 35.298 29.979 35.0422 29.1568 35.0454C26.9297 35.0454 25.1318 36.8823 25.1318 39.1579C25.1318 41.4452 26.9297 43.2684 29.1568 43.2684C30.0078 43.2684 30.8013 43.0041 31.4568 42.536V43.0961H33.3927V32.4291H31.4568ZM43.39 32.4291V35.7778C42.7152 35.298 41.9121 35.0422 41.09 35.0454C38.8648 35.0454 37.065 36.8823 37.065 39.1579C37.0632 39.6984 37.1662 40.2339 37.3678 40.7335C37.5695 41.2332 37.8659 41.6871 38.2401 42.0692C38.6142 42.4513 39.0586 42.754 39.5478 42.9598C40.0369 43.1656 40.561 43.2705 41.09 43.2684C41.9429 43.2684 42.7345 43.0041 43.39 42.536V43.0961H45.3258V32.4291H43.39ZM21.1068 30.0791L22.4178 32.4291H31.4568L27.8746 26.1056L21.1088 30.0771L21.1068 30.0791ZM36.2734 34.407V32.4291H43.39L35.8 19.0047L29.0169 22.9762L34.3376 32.4291V34.407H36.2734ZM46.2727 32.4291H55.3251L43.62 11.7314L36.8523 15.7186L46.2727 32.4291Z"
      fill="white" />
  </g>
  <defs>
    <clipPath id="clip0_790_3495">
      <rect width="46" height="47" fill="white" transform="translate(16.0775 4)" />
    </clipPath>
  </defs>
</svg>