<svg width="72" height="55" viewBox="0 0 72 55" fill="none" xmlns="http://www.w3.org/2000/svg">
  <rect width="72" height="55" rx="4" fill="#44566C" />
  <path
    d="M45.1018 21.924C44.7607 22.7275 44.3569 23.4672 43.8891 24.1473C43.2514 25.0743 42.7292 25.716 42.3268 26.0724C41.7031 26.6573 41.0347 26.9569 40.3191 26.9739C39.8053 26.9739 39.1857 26.8248 38.4645 26.5224C37.7409 26.2214 37.0759 26.0724 36.4678 26.0724C35.8301 26.0724 35.1462 26.2214 34.4147 26.5224C33.682 26.8248 33.0918 26.9824 32.6405 26.998C31.9543 27.0278 31.2702 26.7197 30.5874 26.0724C30.1516 25.6848 29.6065 25.0204 28.9535 24.0791C28.2528 23.0739 27.6768 21.9084 27.2256 20.5795C26.7423 19.1442 26.5 17.7543 26.5 16.4087C26.5 14.8673 26.8266 13.5379 27.4809 12.4239C27.9951 11.529 28.6792 10.8231 29.5353 10.305C30.3915 9.78676 31.3166 9.52268 32.3128 9.50581C32.8579 9.50581 33.5727 9.67773 34.461 10.0156C35.3469 10.3547 35.9156 10.5266 36.165 10.5266C36.3514 10.5266 36.9833 10.3255 38.0544 9.92476C39.0674 9.55308 39.9222 9.39916 40.6226 9.4598C42.5204 9.61597 43.9461 10.3788 44.8943 11.7531C43.1971 12.8017 42.3575 14.2703 42.3742 16.1544C42.3895 17.622 42.9116 18.8432 43.9378 19.8129C44.4028 20.2629 44.9222 20.6108 45.5 20.8578C45.3747 21.2283 45.2424 21.5833 45.1018 21.924ZM40.7493 4.46014C40.7493 5.61039 40.3372 6.68439 39.5157 7.67848C38.5243 8.86025 37.3252 9.54312 36.0249 9.43537C36.0075 9.29076 35.9988 9.1452 35.9987 8.99951C35.9987 7.89526 36.4702 6.71349 37.3074 5.74724C37.7254 5.25801 38.257 4.85123 38.9017 4.52672C39.5449 4.20706 40.1534 4.03028 40.7256 4C40.7424 4.15377 40.7493 4.30757 40.7493 4.46014Z"
    fill="white" />
  <path
    d="M22.9114 43.83H18.6554L17.8714 46H16.5274L20.0554 36.298H21.5254L25.0394 46H23.6954L22.9114 43.83ZM22.5474 42.794L20.7834 37.866L19.0194 42.794H22.5474ZM33.351 39.098C33.351 39.91 33.071 40.5867 32.511 41.128C31.9604 41.66 31.1157 41.926 29.977 41.926H28.101V46H26.827V36.242H29.977C31.0784 36.242 31.9137 36.508 32.483 37.04C33.0617 37.572 33.351 38.258 33.351 39.098ZM29.977 40.876C30.6864 40.876 31.209 40.722 31.545 40.414C31.881 40.106 32.049 39.6673 32.049 39.098C32.049 37.894 31.3584 37.292 29.977 37.292H28.101V40.876H29.977ZM41.7084 39.098C41.7084 39.91 41.4284 40.5867 40.8684 41.128C40.3178 41.66 39.4731 41.926 38.3344 41.926H36.4584V46H35.1844V36.242H38.3344C39.4358 36.242 40.2711 36.508 40.8404 37.04C41.4191 37.572 41.7084 38.258 41.7084 39.098ZM38.3344 40.876C39.0438 40.876 39.5664 40.722 39.9024 40.414C40.2384 40.106 40.4064 39.6673 40.4064 39.098C40.4064 37.894 39.7158 37.292 38.3344 37.292H36.4584V40.876H38.3344ZM44.8159 44.964H48.2319V46H43.5419V36.242H44.8159V44.964ZM51.1088 37.278V40.54H54.6648V41.59H51.1088V44.95H55.0848V46H49.8348V36.228H55.0848V37.278H51.1088Z"
    fill="white" />
</svg>