<svg width="79" height="55" viewBox="0 0 79 55" fill="none" xmlns="http://www.w3.org/2000/svg">
  <rect width="79" height="55" rx="4" fill="#44566C" />
  <path fill-rule="evenodd" clip-rule="evenodd"
    d="M56 15.5C56 21.8492 50.8797 27 44.5681 27C42.7498 27 41.0362 26.5798 39.4897 25.8016C37.9638 26.5587 36.2292 27 34.4322 27C28.1203 27 23 21.8492 23 15.5C23 9.15082 28.1203 4 34.4319 4C36.2502 4 37.9638 4.42051 39.4894 5.17731C41.0153 4.42051 42.7498 4 44.5681 4C50.8797 4 56 9.15082 56 15.5ZM53.7431 15.5C53.7431 10.4124 49.6256 6.27071 44.5681 6.27071C43.6068 6.27071 42.6664 6.41779 41.8094 6.69122C43.5649 8.1627 44.8399 10.1389 45.4667 12.4096H43.1051C42.4417 10.5141 41.1791 8.8894 39.5106 7.78431C37.8595 8.87739 36.6054 10.4966 35.9368 12.4096H33.5752C34.1937 10.1704 35.4681 8.17045 37.2324 6.67016C36.332 6.39094 35.395 6.2492 34.4528 6.24965C29.3953 6.24965 25.2782 10.3913 25.2782 15.4789C25.2782 20.5666 29.3953 24.7085 34.4528 24.7085C35.4141 24.7085 36.3336 24.5615 37.1906 24.288C34.9127 22.375 33.429 19.5577 33.199 16.4042H38.6327V18.6535L35.9784 18.6957C36.6682 20.5458 37.9013 22.1019 39.5106 23.1739C41.1196 22.1016 42.3527 20.5458 43.0426 18.6957L40.3882 18.6535V16.4042H45.8222C45.5713 19.5577 44.0667 22.3539 41.7885 24.267C42.6664 24.5404 43.6068 24.7085 44.5681 24.7085C49.6466 24.7296 53.7431 20.6087 53.7431 15.5Z"
    fill="white" />
  <path
    d="M24.761 39.07C24.4903 38.5007 24.0983 38.062 23.585 37.754C23.0717 37.4367 22.4743 37.278 21.793 37.278C21.1117 37.278 20.4957 37.4367 19.945 37.754C19.4037 38.062 18.9743 38.51 18.657 39.098C18.349 39.6767 18.195 40.3487 18.195 41.114C18.195 41.8793 18.349 42.5513 18.657 43.13C18.9743 43.7087 19.4037 44.1567 19.945 44.474C20.4957 44.782 21.1117 44.936 21.793 44.936C22.745 44.936 23.529 44.6513 24.145 44.082C24.761 43.5127 25.1203 42.7427 25.223 41.772H21.331V40.736H26.581V41.716C26.5063 42.5187 26.2543 43.256 25.825 43.928C25.3957 44.5907 24.831 45.118 24.131 45.51C23.431 45.8927 22.6517 46.084 21.793 46.084C20.8877 46.084 20.0617 45.874 19.315 45.454C18.5683 45.0247 17.9757 44.432 17.537 43.676C17.1077 42.92 16.893 42.066 16.893 41.114C16.893 40.162 17.1077 39.308 17.537 38.552C17.9757 37.7867 18.5683 37.194 19.315 36.774C20.0617 36.3447 20.8877 36.13 21.793 36.13C22.829 36.13 23.7437 36.3867 24.537 36.9C25.3397 37.4133 25.923 38.1367 26.287 39.07H24.761ZM29.7615 36.242V42.416C29.7615 43.284 29.9715 43.928 30.3915 44.348C30.8208 44.768 31.4135 44.978 32.1695 44.978C32.9162 44.978 33.4995 44.768 33.9195 44.348C34.3488 43.928 34.5635 43.284 34.5635 42.416V36.242H35.8375V42.402C35.8375 43.214 35.6742 43.9 35.3475 44.46C35.0208 45.0107 34.5775 45.4213 34.0175 45.692C33.4668 45.9627 32.8462 46.098 32.1555 46.098C31.4648 46.098 30.8395 45.9627 30.2795 45.692C29.7288 45.4213 29.2902 45.0107 28.9635 44.46C28.6462 43.9 28.4875 43.214 28.4875 42.402V36.242H29.7615ZM37.7368 41.114C37.7368 40.162 37.9514 39.308 38.3808 38.552C38.8101 37.7867 39.3934 37.1893 40.1308 36.76C40.8774 36.3307 41.7034 36.116 42.6088 36.116C43.6728 36.116 44.6014 36.3727 45.3948 36.886C46.1881 37.3993 46.7668 38.1273 47.1308 39.07H45.6048C45.3341 38.482 44.9421 38.0293 44.4288 37.712C43.9248 37.3947 43.3181 37.236 42.6088 37.236C41.9274 37.236 41.3161 37.3947 40.7748 37.712C40.2334 38.0293 39.8088 38.482 39.5008 39.07C39.1928 39.6487 39.0388 40.33 39.0388 41.114C39.0388 41.8887 39.1928 42.57 39.5008 43.158C39.8088 43.7367 40.2334 44.1847 40.7748 44.502C41.3161 44.8193 41.9274 44.978 42.6088 44.978C43.3181 44.978 43.9248 44.824 44.4288 44.516C44.9421 44.1987 45.3341 43.746 45.6048 43.158H47.1308C46.7668 44.0913 46.1881 44.8147 45.3948 45.328C44.6014 45.832 43.6728 46.084 42.6088 46.084C41.7034 46.084 40.8774 45.874 40.1308 45.454C39.3934 45.0247 38.8101 44.432 38.3808 43.676C37.9514 42.92 37.7368 42.066 37.7368 41.114ZM48.8012 41.114C48.8012 40.162 49.0159 39.308 49.4452 38.552C49.8746 37.7867 50.4579 37.1893 51.1952 36.76C51.9419 36.3307 52.7679 36.116 53.6732 36.116C54.7372 36.116 55.6659 36.3727 56.4592 36.886C57.2526 37.3993 57.8312 38.1273 58.1952 39.07H56.6692C56.3986 38.482 56.0066 38.0293 55.4932 37.712C54.9892 37.3947 54.3826 37.236 53.6732 37.236C52.9919 37.236 52.3806 37.3947 51.8392 37.712C51.2979 38.0293 50.8732 38.482 50.5652 39.07C50.2572 39.6487 50.1032 40.33 50.1032 41.114C50.1032 41.8887 50.2572 42.57 50.5652 43.158C50.8732 43.7367 51.2979 44.1847 51.8392 44.502C52.3806 44.8193 52.9919 44.978 53.6732 44.978C54.3826 44.978 54.9892 44.824 55.4932 44.516C56.0066 44.1987 56.3986 43.746 56.6692 43.158H58.1952C57.8312 44.0913 57.2526 44.8147 56.4592 45.328C55.6659 45.832 54.7372 46.084 53.6732 46.084C52.7679 46.084 51.9419 45.874 51.1952 45.454C50.4579 45.0247 49.8746 44.432 49.4452 43.676C49.0159 42.92 48.8012 42.066 48.8012 41.114ZM61.6157 36.242V46H60.3417V36.242H61.6157Z"
    fill="white" />
</svg>