<svg width="66" height="55" viewBox="0 0 66 55" fill="none" xmlns="http://www.w3.org/2000/svg">
  <rect x="0.0775146" width="65.4654" height="55" rx="4" fill="#44566C" />
  <path
    d="M39.5957 17.1316C40.8113 16.5346 41.4137 16.6129 41.4272 17.218C41.4435 18.0041 41.3272 19.0494 41.2435 19.8059C40.7923 23.9168 40.0387 27.2761 39.982 31.4971C41.9674 26.3571 43.6314 22.7847 45.7761 18.3849C46.4569 16.9829 46.8918 17.245 47.4509 16.9965C49.6282 16.0267 49.7092 16.621 49.4255 17.8069C48.3694 22.1991 45.6654 36.0284 45.2522 38.1578C45.1332 38.7739 44.4634 38.5127 44.2905 38.2718C43.5152 37.1994 42.64 37.1827 42.7373 36.4695C43.2235 32.9193 44.9739 24.0116 45.4304 21.9127C43.1046 26.681 40.6924 32.6419 39.4525 36.0217C39.1905 36.7394 38.7123 36.6867 38.4153 36.1616C37.9965 35.424 37.1835 35.0473 37.0484 34.1756C36.6243 31.4042 37.5346 26.1216 37.6615 22.7796C36.3947 26.4303 34.2688 33.5182 33.3368 36.7204C32.9533 38.0454 31.6729 37.8293 32.0132 36.5379C33.4286 31.1638 36.4785 21.6589 37.7967 18.2418C38.1074 17.4368 38.9204 17.4638 39.5957 17.1316ZM31.8756 16.4724C31.465 16.3725 30.2738 17.0154 29.5417 17.1423C29.3094 17.1828 29.0879 17.4286 29.0095 17.6043C27.8372 20.2974 26.7864 22.8647 25.8761 25.2035C24.7118 25.4023 23.3504 25.664 21.8269 26.0063C22.9182 23.2069 24.0203 20.4459 25.0954 17.7906C25.6248 16.4832 24.2311 16.359 23.6908 17.6826C22.9884 19.4033 21.6729 22.6272 20.2169 26.3849C19.0809 26.6634 17.9506 26.9651 16.8268 27.2896C15.9651 27.5384 15.9301 27.768 16.3028 28.2847C16.5081 28.5725 16.9322 28.5435 17.1267 28.7485C17.6291 29.2799 17.9344 29.9154 18.8338 30.0116C18.0316 32.1578 17.2293 34.3709 16.5027 36.5019C16.0461 37.8396 17.3454 38.1132 17.8452 36.6977C18.6502 34.416 19.4984 32.1067 20.3709 29.8041C21.0975 29.6353 22.856 29.2565 24.4794 28.9043C23.1909 32.4359 22.3427 35.118 22.0213 36.4235C21.9619 36.6748 22.0618 36.8141 22.1159 36.9166C22.5508 37.5494 22.964 37.5753 23.5232 38.3579C23.6745 38.5713 24.1824 38.6863 24.3552 38.1609C25.5491 34.5545 26.7782 31.1706 27.9235 28.1371C28.3989 28.0331 29.2552 27.8265 29.7793 27.0445C30.7112 25.6566 30.9786 25.938 31.2029 25.5161C31.4838 24.9864 31.2974 24.4891 30.3034 24.6119C30.3034 24.6119 29.9279 24.6387 29.2337 24.7178C30.3358 21.8802 31.3001 19.4733 31.9943 17.6392C32.2322 17.0181 32.2619 16.5643 31.8756 16.4724Z"
    fill="#CC071E" />
  <path
    d="M30.2494 34.8773C30.506 35.5258 31.3082 35.3294 31.003 34.5466C30.6923 33.7491 29.9198 31.3485 29.7172 30.5752C29.4416 29.533 30.6356 29.818 30.0305 30.4993C29.5119 31.0852 29.1661 31.3199 28.2072 32.4339C27.2807 33.5093 27.5319 34.9048 28.5232 35.213C29.6415 35.5609 30.6275 34.3286 31.238 33.4245C31.8295 32.5491 31.2569 32.0355 30.66 32.5531C30.2763 32.8859 29.8333 33.397 29.3849 33.6725C29.0202 33.8943 28.7339 33.656 29.2201 32.9867C29.7847 32.2117 30.4168 31.5623 30.8868 30.83C31.8457 29.3375 29.9494 28.4772 29.1337 29.4467C28.696 29.9634 28.8069 30.4708 28.9257 30.9062C29.1175 31.6036 29.8306 33.83 30.2494 34.8773Z"
    fill="#CC071E" />
</svg>