<svg width="63" height="55" viewBox="0 0 63 55" fill="none" xmlns="http://www.w3.org/2000/svg">
  <rect y="0.5" width="63" height="54" rx="4" fill="#44566C" />
  <path
    d="M38.8935 8.5001C41.5548 8.5001 44.2164 8.4997 46.8777 8.50049C46.8793 9.10789 46.8746 9.71567 46.8804 10.3235C46.2043 10.3534 45.5129 10.4301 44.8903 10.7169C44.2587 11.0044 43.7293 11.5276 43.4568 12.1755C40.2206 19.8852 36.9868 27.5956 33.7541 35.3069C33.6982 35.4335 33.6532 35.5645 33.588 35.6869C32.4304 35.6731 31.2725 35.6849 30.115 35.6806C29.6042 34.6519 29.1015 33.6188 28.5864 32.5925C27.996 34.1959 27.4021 35.7978 26.8117 37.4009C30.6301 37.4013 34.4485 37.4009 38.267 37.4013C38.9661 37.4107 39.6861 37.3812 40.3402 37.1043C41.427 36.6617 42.2923 35.8065 42.9964 34.8793C43.8465 33.7557 44.4916 32.491 45.0665 31.2058C45.7113 31.2003 46.3556 31.2078 47 31.2066C45.778 33.8517 44.5499 36.4945 43.317 39.1346C34.518 39.135 25.7194 39.1346 16.9204 39.1346C17.1346 38.5677 17.3384 37.9961 17.5682 37.4351C17.5822 37.3773 17.6532 37.3918 17.6963 37.3863C18.7948 37.3781 19.9007 37.3348 20.9787 37.1031C21.5396 36.9697 22.1199 36.7919 22.5515 36.3859C22.7798 36.1653 22.8508 35.8431 22.9265 35.5457C23.9656 32.7274 25.0063 29.9096 26.0462 27.0917C23.8484 22.3459 21.6432 17.6027 19.4442 12.8573C19.2672 12.4423 19.0335 12.0312 18.6659 11.7609C17.9051 11.1834 16.9165 11.1102 16.0004 11.0733C15.9996 10.3931 16.0004 9.71331 16 9.03314C19.0894 9.03196 22.1785 9.03236 25.2679 9.03275C25.2683 9.71292 25.2687 10.3931 25.2675 11.0733C24.865 11.0992 24.4376 11.0925 24.0732 11.2943C23.8923 11.3809 23.7859 11.5988 23.8325 11.7971C23.8895 12.1216 24.1426 12.3534 24.2707 12.6464C25.5754 15.4942 26.88 18.3423 28.1885 21.1889C28.8441 19.3309 29.4998 17.4733 30.1581 15.6165C30.2548 15.3585 30.2889 15.0603 30.1787 14.8006C30.0921 14.5957 29.8957 14.469 29.702 14.3836C29.3255 14.2263 28.9117 14.2279 28.5126 14.1987C28.7164 13.6248 28.9214 13.0508 29.1326 12.48C29.1815 12.4482 29.2494 12.4726 29.3057 12.4647C32.4401 12.4666 35.575 12.4647 38.7099 12.4659C38.4933 13.0426 38.2778 13.6193 38.0636 14.1968C37.3086 14.2322 36.5303 14.2515 35.8223 14.5504C35.4978 14.6881 35.1907 14.8986 34.999 15.2031C34.8658 15.4261 34.7831 15.6751 34.6939 15.9183C33.3842 19.5382 32.0625 23.1535 30.7675 26.779C31.4849 28.4222 32.2325 30.0512 32.9642 31.6877C35.6212 25.3289 38.2774 18.9694 40.9376 12.6118C41.1169 12.2294 41.4088 11.8805 41.4317 11.4407C41.4538 11.0965 41.2019 10.7995 40.91 10.6582C40.2808 10.364 39.5735 10.3494 38.8935 10.3246C38.8927 9.71646 38.8927 9.10828 38.8935 8.5001ZM43.725 42.7384C44.5638 43.6188 45.3961 44.5051 46.2268 45.393C46.2256 44.5676 46.2303 43.7419 46.2295 42.9166C46.3731 42.917 46.5167 42.9154 46.6607 42.9134C46.6611 44.0916 46.6611 45.2702 46.6607 46.4484C45.8211 45.5723 44.9939 44.6845 44.1586 43.8041C44.1598 44.6345 44.1567 45.4653 44.1563 46.2962C44.0123 46.2974 43.8686 46.297 43.725 46.297C43.7246 45.1105 43.7242 43.9244 43.725 42.7384ZM19.3057 42.8596C20.2299 42.7156 21.2077 43.4489 21.29 44.404C21.3676 44.9504 21.1584 45.5201 20.7636 45.8965C20.1146 46.5401 18.9474 46.5283 18.3174 45.8619C17.9769 45.5275 17.7829 45.0456 17.8034 44.5645C17.8128 43.7274 18.4955 42.9796 19.3057 42.8596ZM19.306 43.2923C18.768 43.3812 18.3302 43.86 18.2549 44.4024C18.1524 45.0189 18.5278 45.6821 19.1151 45.8836C19.629 46.0803 20.2543 45.895 20.5843 45.4504C21.0109 44.908 20.9387 44.0327 20.4139 43.5822C20.1189 43.3104 19.6923 43.2207 19.306 43.2923ZM25.9798 43.0417C26.4534 42.6814 27.227 42.8305 27.5003 43.3749C27.3862 43.4402 27.2721 43.5059 27.1579 43.5712C26.9526 43.2459 26.4522 43.1664 26.1763 43.4426C26.0594 43.5291 26.0722 43.6877 26.0846 43.8179C26.118 43.9878 26.2966 44.0598 26.4282 44.1397C26.7674 44.3206 27.175 44.4249 27.4134 44.753C27.6792 45.1192 27.6354 45.6644 27.3454 46.0035C27.0423 46.3753 26.488 46.4658 26.0641 46.271C25.7388 46.1082 25.5377 45.764 25.4725 45.4111C25.6181 45.3761 25.7644 45.3438 25.9104 45.3108C25.9251 45.6326 26.1716 45.9579 26.507 45.9638C26.9596 46.0138 27.3194 45.4174 27.0558 45.037C26.7744 44.6487 26.2318 44.6432 25.908 44.3076C25.5268 43.9917 25.5653 43.3108 25.9798 43.0417ZM41.4317 42.8572C42.0373 42.7805 42.663 43.0637 43.0348 43.5491C43.5709 44.2289 43.4851 45.3135 42.8489 45.8981C42.4856 46.262 41.9515 46.4118 41.45 46.3579C40.9543 46.3249 40.4904 46.0432 40.2043 45.6357C39.8961 45.201 39.8161 44.6199 39.9621 44.1089C40.1527 43.4469 40.7606 42.9437 41.4317 42.8572ZM41.3576 43.2982C40.6899 43.4134 40.2125 44.1341 40.3297 44.8045C40.4038 45.4492 41.0074 45.974 41.646 45.9618C42.0815 45.9693 42.4968 45.7191 42.7317 45.3532C43.0884 44.8292 42.9945 44.055 42.5349 43.6239C42.2341 43.3151 41.7694 43.2108 41.3576 43.2982ZM16.347 42.9142C16.4848 42.9135 16.6226 42.9135 16.7604 42.9142C16.7608 43.9131 16.76 44.9123 16.7608 45.9111C17.1032 45.9119 17.4452 45.9111 17.7875 45.9115C17.7883 46.0397 17.7883 46.168 17.7879 46.2966C17.3074 46.297 16.8272 46.2974 16.347 46.2966C16.3474 45.1692 16.3474 44.0417 16.347 42.9142ZM21.6242 42.917C21.7701 42.9158 21.9161 42.9162 22.0624 42.9166C22.0636 43.5822 22.0605 44.2482 22.064 44.9139C22.0706 45.2065 22.1063 45.5283 22.3105 45.7537C22.6354 46.0767 23.2735 46.0307 23.5002 45.6121C23.6147 45.4154 23.6481 45.1825 23.645 44.9575C23.6423 44.2773 23.6423 43.5972 23.6427 42.9166C23.7886 42.9158 23.9346 42.9162 24.0805 42.9166C24.0805 43.6109 24.0821 44.3053 24.0801 44.9996C24.0809 45.3147 24.027 45.6479 23.8282 45.9013C23.4008 46.5012 22.4102 46.5354 21.9421 45.9685C21.7197 45.7325 21.6281 45.3997 21.625 45.0795C21.623 44.3588 21.6246 43.6377 21.6242 42.917ZM24.6197 42.9146C24.7633 42.913 24.9073 42.9134 25.0513 42.9142C25.0513 44.0417 25.0517 45.1691 25.051 46.297C24.9073 46.297 24.7633 46.2974 24.6193 46.2962C24.6201 45.1691 24.6201 44.0417 24.6197 42.9146ZM28.942 42.9174C29.0999 42.9131 29.2587 42.9131 29.4171 42.9139C29.7486 43.736 30.075 44.5602 30.4007 45.3847C30.7256 44.563 31.0598 43.7451 31.3773 42.9205C31.54 42.9068 31.703 42.9162 31.866 42.9139C31.3812 44.1102 30.8945 45.3057 30.4054 46.5C29.9077 45.31 29.428 44.1121 28.942 42.9174ZM32.0636 42.9135C32.2072 42.9154 32.3509 42.917 32.4949 42.9166C32.4999 43.572 32.4941 44.2278 32.4995 44.8832C32.5096 45.1943 32.5333 45.5472 32.7678 45.7777C33.0383 46.0126 33.4692 46.0271 33.758 45.8183C33.9261 45.6971 34.0184 45.4957 34.0549 45.295C34.1124 44.9496 34.0918 44.5984 34.0957 44.2498C34.098 43.8057 34.0984 43.3615 34.0976 42.9174C34.2358 42.9158 34.3744 42.9162 34.513 42.9166C34.5192 43.5327 34.5141 44.1483 34.5157 44.7644C34.5254 45.1463 34.5134 45.561 34.284 45.8836C33.8822 46.4709 32.9576 46.5342 32.4491 46.057C32.1948 45.8186 32.0671 45.467 32.0652 45.12C32.0613 44.3843 32.0644 43.6491 32.0636 42.9135ZM35.0549 42.9166C35.2047 42.917 35.3545 42.9154 35.5047 42.9139C35.5047 44.0413 35.5044 45.1688 35.5047 46.2966C35.3538 46.297 35.2031 46.297 35.0525 46.2966C35.051 45.1699 35.056 44.0433 35.0549 42.9166ZM35.7741 42.9166C37.1199 42.9178 38.4653 42.9142 39.8111 42.9146C39.8107 43.0496 39.8107 43.1845 39.8111 43.3198C39.553 43.321 39.2952 43.3198 39.0375 43.3202C39.0363 44.3124 39.0371 45.3045 39.0371 46.2966C38.8869 46.297 38.737 46.297 38.5868 46.2966C38.586 45.3045 38.5895 44.3124 38.5853 43.3202C38.057 43.321 37.5287 43.3198 37.0004 43.3206C36.9996 44.3128 37.0004 45.3045 37 46.2966C36.8622 46.297 36.7244 46.297 36.587 46.2966C36.5866 45.3045 36.5874 44.3128 36.5866 43.3206C36.3156 43.3198 36.0451 43.321 35.7741 43.3198C35.7738 43.1853 35.7738 43.0508 35.7741 42.9166Z"
    fill="white" />
</svg>