<svg width="196" height="55" viewBox="0 0 196 55" fill="none" xmlns="http://www.w3.org/2000/svg">
  <rect x="0.542969" width="194.599" height="55" rx="4" fill="#44566C" />
  <path
    d="M115.542 27.8241L115.538 31.9233C115.529 36.7177 112.073 39.4048 107.252 39.5347H106.209C101.384 39.3444 97.9617 36.6608 97.9711 31.8966V27.7975C97.9879 22.9923 101.443 20.3266 106.287 20.195C106.532 20.1914 107.007 20.195 107.246 20.195C112.107 20.3426 115.555 23.0564 115.542 27.8241ZM106.422 24.1732C104.521 24.2727 102.695 25.2064 102.688 27.8152V31.9233C102.681 34.4325 104.503 35.4426 106.405 35.5529C106.502 35.5636 106.981 35.5636 107.085 35.5582C108.951 35.4586 110.799 34.4948 110.802 31.9339L110.808 27.8241C110.818 25.2437 108.967 24.2781 107.072 24.1732C106.839 24.1572 106.641 24.1572 106.422 24.1732ZM122.806 28.3242C122.806 28.3242 129.889 20.6541 130.312 20.2273L136.232 20.2416L127.626 29.4944L136.656 39.0246L130.657 39.0157L122.799 30.7001L122.784 39.0033L118.02 38.9944L118.065 15.6321L122.825 15.6392L122.806 28.3242ZM55.4525 31.054L55.4619 27.748C55.4749 22.9447 51.9484 20.2558 47.1174 20.0993L46.2073 20.0939C41.3446 20.238 37.8873 22.9127 37.8835 27.7125L37.8742 31.7902C37.8648 36.3642 41.4437 39.2042 46.0691 39.4336C46.5606 39.4425 46.8165 39.4301 47.1473 39.4336C52.9389 39.4425 55.1049 36.6505 55.3703 33.4566L51.0121 33.4459C50.8962 34.0505 50.6813 35.6013 47.0314 35.5977C46.3904 35.5906 45.5027 35.4412 44.8654 35.242C42.1594 34.3795 42.5911 31.2016 42.5911 31.0273L55.4525 31.054ZM42.5873 27.4066C42.5873 24.9364 44.3123 23.9743 46.3568 23.8979C46.5755 23.8925 46.7979 23.8872 46.9904 23.9014C49.0629 23.9832 50.7972 25.0254 50.7916 27.4244V27.7427L42.5799 27.7356L42.5873 27.4066ZM75.4088 31.0819L75.4162 27.7831C75.4293 22.9797 71.899 20.2908 67.0643 20.1272H66.1616C61.2914 20.2695 57.8248 22.9459 57.8173 27.7439L57.8117 31.8253C57.8024 36.3903 61.3774 39.2428 66.0103 39.4687C66.5148 39.4776 66.7597 39.4687 67.0942 39.4687C72.8951 39.4776 75.0462 36.6784 75.3134 33.4934L70.9795 33.4774C70.8375 34.0838 70.6412 35.6327 66.969 35.6274C66.3336 35.6221 65.4552 35.4709 64.8273 35.27C62.0969 34.4128 62.5455 31.2331 62.5418 31.0624L75.4088 31.0819ZM62.5286 27.4452C62.5361 24.9679 64.2686 24.004 66.2982 23.9311C66.5112 23.924 66.7429 23.9276 66.9428 23.9365C69.0079 24.0147 70.7441 25.0586 70.7385 27.4541V27.7742L62.5231 27.7635L62.5286 27.4452ZM87.2616 20.1962C85.0545 20.1909 83.5426 20.7635 82.711 21.4411L82.7167 15.5707L77.9885 15.5636L77.9492 38.9259H78.7753C78.7753 38.9259 80.8758 37.8073 80.9898 37.77C81.2945 38.0776 83.3651 39.5234 86.2282 39.5234C86.5926 39.527 86.929 39.5537 87.2841 39.5323C92.0683 39.4381 95.535 36.6123 95.5463 31.9209L95.5499 27.8449C95.5593 23.2568 92.0851 20.1998 87.2616 20.1962ZM90.8143 31.937C90.8124 34.4942 88.9455 35.4563 87.0879 35.5719C86.9907 35.5719 86.4973 35.5684 86.4094 35.563C84.5107 35.4421 82.6886 34.4462 82.6886 31.9298L82.6998 27.8236C82.7035 25.2058 84.5332 24.2882 86.4263 24.1691C86.6543 24.1531 86.8598 24.1459 87.0915 24.1708C88.9678 24.2935 90.8237 25.2361 90.82 27.8361L90.8143 31.937ZM37.2759 38.8575L28.1878 29.2098C28.64 29.2347 29.0885 29.2525 29.5482 29.2525C32.671 29.2561 36.5583 27.3817 36.5639 22.6228C36.5807 16.916 31.6021 15.488 27.1898 15.4844L16.5934 15.4596L16.543 38.8201L21.3441 38.8308V28.4042L31.1928 38.8468L37.2759 38.8575ZM21.374 19.4626L27.1319 19.4786C29.7912 19.4786 32.1441 20.2807 32.1441 22.6868C32.1366 25.1 30.6677 25.9643 27.1187 25.9483L21.359 25.9448L21.374 19.4626Z"
    fill="#ECECEC" />
  <path
    d="M152.935 33.9909L158.988 24.0587L159.779 12.0477L158.422 12.0459L141.656 39.5482L142.365 40.7095L152.935 33.9909ZM154.368 36.3188L142.991 41.7303L143.694 42.8951L177.099 42.9538L177.774 41.8424L166.368 36.3294L154.368 36.3188ZM162.492 12.053L161.036 12.0477L161.756 24.0605L167.768 34.0265L178.394 40.8251L179.142 39.6123L162.492 12.053Z"
    fill="#D01931" />
</svg>