<svg width="138" height="55" viewBox="0 0 138 55" fill="none" xmlns="http://www.w3.org/2000/svg">
<rect width="137.078" height="55" rx="4" fill="#44566C"/>
<path d="M22.9746 30.7319C23.1191 31.0951 23.0733 31.5605 23.0028 31.8426C22.8794 32.3433 22.5409 32.8546 21.5395 32.8546C20.6015 32.8546 20.0303 32.3116 20.0303 31.4935V30.0373H16V31.1938C16 34.5436 18.634 35.5556 21.4584 35.5556C24.1734 35.5556 26.409 34.6317 26.7651 32.1247C26.9485 30.8271 26.8145 29.9773 26.751 29.6635C26.1163 26.5182 20.4182 25.5803 19.9915 23.8208C19.9323 23.5613 19.9275 23.2924 19.9774 23.031C20.0832 22.5479 20.4111 22.0225 21.3491 22.0225C22.2306 22.0225 22.7418 22.5655 22.7418 23.3836V24.3144H26.4901V23.2566C26.4901 19.9844 23.5528 19.4731 21.4302 19.4731C18.7574 19.4731 16.5747 20.3582 16.1763 22.8088C16.0705 23.4788 16.0529 24.0782 16.2116 24.8328C16.8639 27.9005 22.1988 28.789 22.9746 30.7319Z" fill="white"/>
<path d="M32.0791 19.9527L29.2935 34.9703H33.352L35.4077 21.342H35.4923L37.4916 34.9703H41.5289L38.761 19.9492L32.0791 19.9527ZM54.7693 19.9527L52.9181 31.4336H52.83L50.9823 19.9527H44.8575L44.5261 34.9703H48.2849L48.3766 21.469H48.4612L50.9682 34.9703H54.7799L57.2905 21.4725H57.3716L57.4668 34.9703H61.222L60.8906 19.9492L54.7693 19.9527Z" fill="white"/>
<path d="M71.7994 30.7036C71.944 31.0668 71.8981 31.5322 71.8276 31.8143C71.7042 32.315 71.3657 32.8263 70.3643 32.8263C69.4264 32.8263 68.8551 32.2832 68.8551 31.4652V30.0089H64.8248V31.1655C64.8248 34.5153 67.4588 35.5272 70.2832 35.5272C72.9983 35.5272 75.2338 34.6034 75.5899 32.0964C75.7733 30.7988 75.6393 29.949 75.5758 29.6352C74.9411 26.4899 69.243 25.552 68.8163 23.7925C68.7571 23.533 68.7523 23.2641 68.8022 23.0026C68.908 22.5196 69.2359 21.9942 70.1739 21.9942C71.0554 21.9942 71.5667 22.5372 71.5667 23.3552V24.2861H75.3149V23.2283C75.3149 19.9561 72.3777 19.4448 70.255 19.4448C67.5822 19.4448 65.3996 20.3299 65.0011 22.7805C64.8954 23.4504 64.8777 24.0499 65.0364 24.8045C65.6887 27.8721 71.0237 28.7607 71.7994 30.7036Z" fill="white"/>
<path d="M84.4064 32.7204C85.4501 32.7204 85.771 32.0011 85.845 31.6344C85.8768 31.4722 85.8803 31.2535 85.8803 31.0596V19.9525H89.6814V30.7176C89.6821 31.047 89.6704 31.3763 89.6461 31.7049C89.3817 34.5081 87.1673 35.4178 84.4064 35.4178C81.642 35.4178 79.4276 34.5081 79.1631 31.7049C79.1526 31.5568 79.1243 30.9926 79.1279 30.7176V19.949H82.929V31.0561C82.9254 31.2535 82.9325 31.4722 82.9642 31.6344C83.0348 32.0011 83.3592 32.7204 84.4064 32.7204ZM102.77 19.9525L102.975 31.7401H102.894L99.438 19.9525H93.8668V34.8113H97.5586L97.3541 22.6147H97.4352L101.141 34.8113H106.49V19.9525H102.77ZM115.728 32.5652C116.815 32.5652 117.195 31.8777 117.262 31.4722C117.294 31.3064 117.298 31.0949 117.298 30.908V28.7218H115.757V26.5357H121.078V30.5624C121.078 30.8445 121.07 31.049 121.025 31.5497C120.778 34.286 118.405 35.2627 115.743 35.2627C113.08 35.2627 110.711 34.286 110.461 31.5497C110.418 31.049 110.408 30.8445 110.408 30.5624V24.2437C110.408 23.9757 110.443 23.5032 110.471 23.2564C110.806 20.4461 113.08 19.5435 115.743 19.5435C118.405 19.5435 120.739 20.4391 121.014 23.2529C121.063 23.7324 121.049 24.2402 121.049 24.2402V24.7444H117.262V23.9017C117.262 23.9017 117.262 23.5491 117.216 23.3305C117.146 22.999 116.864 22.2374 115.714 22.2374C114.621 22.2374 114.3 22.9602 114.219 23.3305C114.173 23.5279 114.156 23.7959 114.156 24.0392V30.9045C114.156 31.0949 114.163 31.3064 114.191 31.4757C114.262 31.8777 114.642 32.5652 115.728 32.5652Z" fill="white"/>
</svg>
