<svg width="106" height="55" viewBox="0 0 106 55" fill="none" xmlns="http://www.w3.org/2000/svg">
  <rect x="0.0775146" width="105" height="55" rx="4" fill="#44566C" />
  <path
    d="M85.3332 41.6123L74.5177 12.5193L74.5104 12.5H74.2969L72.0698 18.4785L68.0151 29.3626L68.0056 29.354C66.6004 28.1425 64.6178 27.3852 62.1209 27.1032L61.3593 27.0263L62.1148 26.9317C66.2325 26.2088 69.0003 23.668 69.0003 20.6068C69.0003 16.4091 64.9593 13.4791 59.1707 13.4791H47.1268V13.6917H50.6264V35.3822L42.1271 12.5192L42.1194 12.5H41.9059L39.6787 18.4785L31.0885 41.5374L31.0357 41.5434C30.8889 41.5611 30.7437 41.5752 30.6 41.5858C30.3839 41.6023 30.1691 41.6122 29.9536 41.6122H21.2739L37.7728 13.6916L37.8955 13.4818H17.7166V22.1189H17.9307C17.9687 17.9119 20.4763 13.6916 26.0169 13.6916H32.7011L16.0775 41.8214H38.4727V33.5465H38.2586C38.2294 37.2133 36.1019 40.6961 31.4755 41.4825L31.3284 41.5071L34.8518 32.0451H44.722L48.2785 41.6123H44.7702V41.8215H58.5405V41.6123H55.0171V27.1806H59.0826C63.2199 27.1806 65.5928 28.9865 65.5928 32.1337V34.6936C65.5928 34.9757 65.6124 35.3881 65.6341 35.733V35.7456L63.4489 41.611H60.5942V41.8202H66.5034V41.611H63.6794L65.6693 36.2699C65.6734 36.3216 65.6755 36.3527 65.6755 36.3527L65.7304 36.8339L65.7832 37.1523C66.1152 39.1218 66.8862 40.5696 68.0741 41.4553L68.2449 41.5765C69.1474 42.1895 70.2688 42.5 71.5799 42.5C73.3165 42.5 74.4745 42.077 75.4305 41.0814L75.3052 40.9661C74.4243 41.7605 73.6851 42.0823 72.7589 42.0823C71.1808 42.0823 70.3548 40.2121 70.3548 38.3678V34.781C70.3632 33.891 70.2206 33.0059 69.9327 32.1615L69.8934 32.0503V32.0463H77.1128L80.6694 41.6136H77.161V41.8228H89.0775V41.6136L85.3332 41.6123ZM34.9303 31.8358L39.7927 18.7844L44.6441 31.8358H34.9303ZM55.0192 26.9707V13.6916H58.1225C62.2679 13.6916 64.4564 16.0993 64.4564 20.6519C64.4564 25.4938 63.2002 26.9707 59.0826 26.9707H55.0192ZM69.8093 31.8358L69.7883 31.7842C69.4675 31.0208 69.0004 30.3242 68.4121 29.732L68.2089 29.5333L68.1872 29.5135L72.1808 18.7844L77.0322 31.8358H69.8093Z"
    fill="white" />
</svg>